<?xml version="1.0" encoding="UTF-8" standalone="no"?>
<!DOCTYPE svg PUBLIC "-//W3C//DTD SVG 1.1//EN"
 "http://www.w3.org/Graphics/SVG/1.1/DTD/svg11.dtd">
<!-- Generated by graphviz version 2.40.1 (20161225.0304)
 -->
<!-- Title: dependencies Pages: 1 -->
<svg width="850pt" height="287pt"
 viewBox="0.00 0.00 850.00 287.00" xmlns="http://www.w3.org/2000/svg" xmlns:xlink="http://www.w3.org/1999/xlink">
<g id="graph0" class="graph" transform="scale(1 1) rotate(0) translate(4 283)">
<title>dependencies</title>
<polygon fill="#ffffff" stroke="transparent" points="-4,4 -4,-283 846,-283 846,4 -4,4"/>
<text text-anchor="start" x="400.0091" y="-42.4" font-family="sans-serif" font-weight="bold" font-size="14.00" fill="#000000">Legend</text>
<polygon fill="#ffffb3" stroke="transparent" points="187,-10 187,-30 207,-30 207,-10 187,-10"/>
<text text-anchor="start" x="210.629" y="-15.4" font-family="sans-serif" font-size="14.00" fill="#000000"> &#160;Declarations</text>
<polygon fill="#8dd3c7" stroke="transparent" points="300,-10 300,-30 320,-30 320,-10 300,-10"/>
<text text-anchor="start" x="323.7251" y="-15.4" font-family="sans-serif" font-size="14.00" fill="#000000"> &#160;Module</text>
<polygon fill="#80b1d3" stroke="transparent" points="386,-10 386,-30 406,-30 406,-10 386,-10"/>
<text text-anchor="start" x="409.7812" y="-15.4" font-family="sans-serif" font-size="14.00" fill="#000000"> &#160;Bootstrap</text>
<polygon fill="#fdb462" stroke="transparent" points="483,-10 483,-30 503,-30 503,-10 483,-10"/>
<text text-anchor="start" x="506.6732" y="-15.4" font-family="sans-serif" font-size="14.00" fill="#000000"> &#160;Providers</text>
<polygon fill="#fb8072" stroke="transparent" points="579,-10 579,-30 599,-30 599,-10 579,-10"/>
<text text-anchor="start" x="602.7258" y="-15.4" font-family="sans-serif" font-size="14.00" fill="#000000"> &#160;Exports</text>
<g id="clust1" class="cluster">
<title>cluster_AppModule</title>
<polygon fill="none" stroke="#000000" stroke-dasharray="1,5" points="8,-70 8,-271 660,-271 660,-70 8,-70"/>
</g>
<g id="clust2" class="cluster">
<title>cluster_AppModule_declarations</title>
<polygon fill="none" stroke="#000000" points="388,-78 388,-130 652,-130 652,-78 388,-78"/>
</g>
<g id="clust5" class="cluster">
<title>cluster_AppModule_imports</title>
<polygon fill="none" stroke="#000000" points="236,-78 236,-130 380,-130 380,-78 236,-78"/>
</g>
<g id="clust7" class="cluster">
<title>cluster_AppModule_bootstrap</title>
<polygon fill="none" stroke="#000000" points="495,-211 495,-263 619,-263 619,-211 495,-211"/>
</g>
<g id="clust8" class="cluster">
<title>cluster_AppModule_providers</title>
<polygon fill="none" stroke="#000000" points="16,-78 16,-130 228,-130 228,-78 16,-78"/>
</g>
<g id="clust15" class="cluster">
<title>cluster_AppServerModule</title>
<polygon fill="none" stroke="#000000" stroke-dasharray="1,5" points="668,-138 668,-263 834,-263 834,-138 668,-138"/>
</g>
<g id="clust16" class="cluster">
<title>cluster_AppServerModule_declarations</title>
<polygon fill="none" stroke="#000000" points="676,-146 676,-198 826,-198 826,-146 676,-146"/>
</g>
<!-- AppComponent -->
<g id="node1" class="node">
<title>AppComponent</title>
<polygon fill="#ffffb3" stroke="#000000" points="643.9399,-122 538.0601,-122 538.0601,-86 643.9399,-86 643.9399,-122"/>
<text text-anchor="middle" x="591" y="-99.8" font-family="Times,serif" font-size="14.00" fill="#000000">AppComponent</text>
</g>
<!-- AppModule -->
<g id="node3" class="node">
<title>AppModule</title>
<polygon fill="#8dd3c7" stroke="#000000" points="532.6571,-190 529.6571,-194 508.6571,-194 505.6571,-190 449.3429,-190 449.3429,-154 532.6571,-154 532.6571,-190"/>
<text text-anchor="middle" x="491" y="-167.8" font-family="Times,serif" font-size="14.00" fill="#000000">AppModule</text>
</g>
<!-- AppComponent&#45;&gt;AppModule -->
<g id="edge1" class="edge">
<title>AppComponent&#45;&gt;AppModule</title>
<path fill="none" stroke="#000000" d="M538.1384,-104C531.3067,-104 526.6305,-104 526.6305,-104 526.6305,-104 526.6305,-143.7772 526.6305,-143.7772"/>
<polygon fill="#000000" stroke="#000000" points="523.1305,-143.7772 526.6305,-153.7772 530.1305,-143.7773 523.1305,-143.7772"/>
</g>
<!-- LocatorComponent -->
<g id="node2" class="node">
<title>LocatorComponent</title>
<polygon fill="#ffffb3" stroke="#000000" points="520.3655,-122 395.6345,-122 395.6345,-86 520.3655,-86 520.3655,-122"/>
<text text-anchor="middle" x="458" y="-99.8" font-family="Times,serif" font-size="14.00" fill="#000000">LocatorComponent</text>
</g>
<!-- LocatorComponent&#45;&gt;AppModule -->
<g id="edge2" class="edge">
<title>LocatorComponent&#45;&gt;AppModule</title>
<path fill="none" stroke="#000000" d="M484.8023,-122.2228C484.8023,-122.2228 484.8023,-143.7269 484.8023,-143.7269"/>
<polygon fill="#000000" stroke="#000000" points="481.3023,-143.7269 484.8023,-153.7269 488.3023,-143.727 481.3023,-143.7269"/>
</g>
<!-- AppComponent  -->
<g id="node5" class="node">
<title>AppComponent </title>
<polygon fill="#80b1d3" stroke="#000000" points="611.439,-255 502.561,-255 502.561,-219 611.439,-219 611.439,-255"/>
<text text-anchor="middle" x="557" y="-232.8" font-family="Times,serif" font-size="14.00" fill="#000000">AppComponent </text>
</g>
<!-- AppModule&#45;&gt;AppComponent  -->
<g id="edge4" class="edge">
<title>AppModule&#45;&gt;AppComponent </title>
<path fill="none" stroke="#000000" stroke-dasharray="1,5" d="M517.6794,-190.1061C517.6794,-190.1061 517.6794,-208.991 517.6794,-208.991"/>
<polygon fill="#000000" stroke="#000000" points="514.1794,-208.9909 517.6794,-218.991 521.1794,-208.991 514.1794,-208.9909"/>
</g>
<!-- AppServerModule -->
<g id="node8" class="node">
<title>AppServerModule</title>
<polygon fill="#8dd3c7" stroke="#000000" points="796.1895,-255 793.1895,-259 772.1895,-259 769.1895,-255 675.8105,-255 675.8105,-219 796.1895,-219 796.1895,-255"/>
<text text-anchor="middle" x="736" y="-232.8" font-family="Times,serif" font-size="14.00" fill="#000000">AppServerModule</text>
</g>
<!-- AppModule&#45;&gt;AppServerModule -->
<g id="edge7" class="edge">
<title>AppModule&#45;&gt;AppServerModule</title>
<path fill="none" stroke="#000000" d="M532.9227,-172C588.5736,-172 679.8983,-172 679.8983,-172 679.8983,-172 679.8983,-208.8939 679.8983,-208.8939"/>
<polygon fill="#000000" stroke="#000000" points="676.3984,-208.8938 679.8983,-218.8939 683.3984,-208.8939 676.3984,-208.8938"/>
</g>
<!-- AppRoutingModule -->
<g id="node4" class="node">
<title>AppRoutingModule</title>
<polygon fill="#8dd3c7" stroke="#000000" points="372.2744,-122 369.2744,-126 348.2744,-126 345.2744,-122 243.7256,-122 243.7256,-86 372.2744,-86 372.2744,-122"/>
<text text-anchor="middle" x="308" y="-99.8" font-family="Times,serif" font-size="14.00" fill="#000000">AppRoutingModule</text>
</g>
<!-- AppRoutingModule&#45;&gt;AppModule -->
<g id="edge3" class="edge">
<title>AppRoutingModule&#45;&gt;AppModule</title>
<path fill="none" stroke="#000000" d="M308,-122.2667C308,-140.5552 308,-166 308,-166 308,-166 439.0161,-166 439.0161,-166"/>
<polygon fill="#000000" stroke="#000000" points="439.0161,-169.5001 449.0161,-166 439.0161,-162.5001 439.0161,-169.5001"/>
</g>
<!-- BrowserNativeService -->
<g id="node6" class="node">
<title>BrowserNativeService</title>
<ellipse fill="#fdb462" stroke="#000000" cx="122" cy="-104" rx="98.3889" ry="18"/>
<text text-anchor="middle" x="122" y="-99.8" font-family="Times,serif" font-size="14.00" fill="#000000">BrowserNativeService</text>
</g>
<!-- BrowserNativeService&#45;&gt;AppModule -->
<g id="edge5" class="edge">
<title>BrowserNativeService&#45;&gt;AppModule</title>
<path fill="none" stroke="#000000" d="M122,-122.2921C122,-144.2057 122,-178 122,-178 122,-178 439.0303,-178 439.0303,-178"/>
<polygon fill="#000000" stroke="#000000" points="439.0303,-181.5001 449.0303,-178 439.0302,-174.5001 439.0303,-181.5001"/>
</g>
<!-- AppShellComponent -->
<g id="node7" class="node">
<title>AppShellComponent</title>
<polygon fill="#ffffb3" stroke="#000000" points="818.2176,-190 683.7824,-190 683.7824,-154 818.2176,-154 818.2176,-190"/>
<text text-anchor="middle" x="751" y="-167.8" font-family="Times,serif" font-size="14.00" fill="#000000">AppShellComponent</text>
</g>
<!-- AppShellComponent&#45;&gt;AppServerModule -->
<g id="edge6" class="edge">
<title>AppShellComponent&#45;&gt;AppServerModule</title>
<path fill="none" stroke="#000000" d="M739.993,-190.1061C739.993,-190.1061 739.993,-208.991 739.993,-208.991"/>
<polygon fill="#000000" stroke="#000000" points="736.4931,-208.9909 739.993,-218.991 743.4931,-208.991 736.4931,-208.9909"/>
</g>
<!-- AppServerModule&#45;&gt;AppComponent  -->
<g id="edge8" class="edge">
<title>AppServerModule&#45;&gt;AppComponent </title>
<path fill="none" stroke="#000000" stroke-dasharray="1,5" d="M675.8976,-237C675.8976,-237 621.5215,-237 621.5215,-237"/>
<polygon fill="#000000" stroke="#000000" points="621.5215,-233.5001 611.5215,-237 621.5215,-240.5001 621.5215,-233.5001"/>
</g>
</g>
</svg>
