<?xml version="1.0" encoding="UTF-8" standalone="no"?>
<!DOCTYPE svg PUBLIC "-//W3C//DTD SVG 1.1//EN"
 "http://www.w3.org/Graphics/SVG/1.1/DTD/svg11.dtd">
<!-- Generated by graphviz version 2.40.1 (20161225.0304)
 -->
<!-- Title: dependencies Pages: 1 -->
<svg width="676pt" height="284pt"
 viewBox="0.00 0.00 676.00 284.00" xmlns="http://www.w3.org/2000/svg" xmlns:xlink="http://www.w3.org/1999/xlink">
<g id="graph0" class="graph" transform="scale(1 1) rotate(0) translate(4 280)">
<title>dependencies</title>
<polygon fill="#ffffff" stroke="transparent" points="-4,4 -4,-280 672,-280 672,4 -4,4"/>
<text text-anchor="start" x="313.0091" y="-42.4" font-family="sans-serif" font-weight="bold" font-size="14.00" fill="#000000">Legend</text>
<polygon fill="#ffffb3" stroke="transparent" points="100,-10 100,-30 120,-30 120,-10 100,-10"/>
<text text-anchor="start" x="123.629" y="-15.4" font-family="sans-serif" font-size="14.00" fill="#000000"> &#160;Declarations</text>
<polygon fill="#8dd3c7" stroke="transparent" points="213,-10 213,-30 233,-30 233,-10 213,-10"/>
<text text-anchor="start" x="236.7251" y="-15.4" font-family="sans-serif" font-size="14.00" fill="#000000"> &#160;Module</text>
<polygon fill="#80b1d3" stroke="transparent" points="299,-10 299,-30 319,-30 319,-10 299,-10"/>
<text text-anchor="start" x="322.7812" y="-15.4" font-family="sans-serif" font-size="14.00" fill="#000000"> &#160;Bootstrap</text>
<polygon fill="#fdb462" stroke="transparent" points="396,-10 396,-30 416,-30 416,-10 396,-10"/>
<text text-anchor="start" x="419.6732" y="-15.4" font-family="sans-serif" font-size="14.00" fill="#000000"> &#160;Providers</text>
<polygon fill="#fb8072" stroke="transparent" points="492,-10 492,-30 512,-30 512,-10 492,-10"/>
<text text-anchor="start" x="515.7258" y="-15.4" font-family="sans-serif" font-size="14.00" fill="#000000"> &#160;Exports</text>
<g id="clust1" class="cluster">
<title>cluster_AppModule</title>
<polygon fill="none" stroke="#000000" stroke-dasharray="1,5" points="8,-70 8,-268 660,-268 660,-70 8,-70"/>
</g>
<g id="clust2" class="cluster">
<title>cluster_AppModule_declarations</title>
<polygon fill="none" stroke="#000000" points="388,-78 388,-130 652,-130 652,-78 388,-78"/>
</g>
<g id="clust5" class="cluster">
<title>cluster_AppModule_imports</title>
<polygon fill="none" stroke="#000000" points="236,-78 236,-130 380,-130 380,-78 236,-78"/>
</g>
<g id="clust7" class="cluster">
<title>cluster_AppModule_bootstrap</title>
<polygon fill="none" stroke="#000000" points="321,-208 321,-260 445,-260 445,-208 321,-208"/>
</g>
<g id="clust8" class="cluster">
<title>cluster_AppModule_providers</title>
<polygon fill="none" stroke="#000000" points="16,-78 16,-130 228,-130 228,-78 16,-78"/>
</g>
<!-- AppComponent -->
<g id="node1" class="node">
<title>AppComponent</title>
<polygon fill="#ffffb3" stroke="#000000" points="643.9399,-122 538.0601,-122 538.0601,-86 643.9399,-86 643.9399,-122"/>
<text text-anchor="middle" x="591" y="-99.8" font-family="Times,serif" font-size="14.00" fill="#000000">AppComponent</text>
</g>
<!-- AppModule -->
<g id="node3" class="node">
<title>AppModule</title>
<polygon fill="#8dd3c7" stroke="#000000" points="424.6571,-187 421.6571,-191 400.6571,-191 397.6571,-187 341.3429,-187 341.3429,-151 424.6571,-151 424.6571,-187"/>
<text text-anchor="middle" x="383" y="-164.8" font-family="Times,serif" font-size="14.00" fill="#000000">AppModule</text>
</g>
<!-- AppComponent&#45;&gt;AppModule -->
<g id="edge1" class="edge">
<title>AppComponent&#45;&gt;AppModule</title>
<path fill="none" stroke="#000000" d="M591,-122.1061C591,-141.3391 591,-169 591,-169 591,-169 435.0919,-169 435.0919,-169"/>
<polygon fill="#000000" stroke="#000000" points="435.0919,-165.5001 425.0919,-169 435.0919,-172.5001 435.0919,-165.5001"/>
</g>
<!-- LocatorComponent -->
<g id="node2" class="node">
<title>LocatorComponent</title>
<polygon fill="#ffffb3" stroke="#000000" points="520.3655,-122 395.6345,-122 395.6345,-86 520.3655,-86 520.3655,-122"/>
<text text-anchor="middle" x="458" y="-99.8" font-family="Times,serif" font-size="14.00" fill="#000000">LocatorComponent</text>
</g>
<!-- LocatorComponent&#45;&gt;AppModule -->
<g id="edge2" class="edge">
<title>LocatorComponent&#45;&gt;AppModule</title>
<path fill="none" stroke="#000000" d="M410.1978,-122.1061C410.1978,-122.1061 410.1978,-140.991 410.1978,-140.991"/>
<polygon fill="#000000" stroke="#000000" points="406.6978,-140.9909 410.1978,-150.991 413.6978,-140.991 406.6978,-140.9909"/>
</g>
<!-- AppComponent  -->
<g id="node5" class="node">
<title>AppComponent </title>
<polygon fill="#80b1d3" stroke="#000000" points="437.439,-252 328.561,-252 328.561,-216 437.439,-216 437.439,-252"/>
<text text-anchor="middle" x="383" y="-229.8" font-family="Times,serif" font-size="14.00" fill="#000000">AppComponent </text>
</g>
<!-- AppModule&#45;&gt;AppComponent  -->
<g id="edge4" class="edge">
<title>AppModule&#45;&gt;AppComponent </title>
<path fill="none" stroke="#000000" stroke-dasharray="1,5" d="M383,-187.1061C383,-187.1061 383,-205.991 383,-205.991"/>
<polygon fill="#000000" stroke="#000000" points="379.5001,-205.9909 383,-215.991 386.5001,-205.991 379.5001,-205.9909"/>
</g>
<!-- AppRoutingModule -->
<g id="node4" class="node">
<title>AppRoutingModule</title>
<polygon fill="#8dd3c7" stroke="#000000" points="372.2744,-122 369.2744,-126 348.2744,-126 345.2744,-122 243.7256,-122 243.7256,-86 372.2744,-86 372.2744,-122"/>
<text text-anchor="middle" x="308" y="-99.8" font-family="Times,serif" font-size="14.00" fill="#000000">AppRoutingModule</text>
</g>
<!-- AppRoutingModule&#45;&gt;AppModule -->
<g id="edge3" class="edge">
<title>AppRoutingModule&#45;&gt;AppModule</title>
<path fill="none" stroke="#000000" d="M356.7795,-122.1061C356.7795,-122.1061 356.7795,-140.991 356.7795,-140.991"/>
<polygon fill="#000000" stroke="#000000" points="353.2795,-140.9909 356.7795,-150.991 360.2795,-140.991 353.2795,-140.9909"/>
</g>
<!-- BrowserNativeService -->
<g id="node6" class="node">
<title>BrowserNativeService</title>
<ellipse fill="#fdb462" stroke="#000000" cx="122" cy="-104" rx="98.3889" ry="18"/>
<text text-anchor="middle" x="122" y="-99.8" font-family="Times,serif" font-size="14.00" fill="#000000">BrowserNativeService</text>
</g>
<!-- BrowserNativeService&#45;&gt;AppModule -->
<g id="edge5" class="edge">
<title>BrowserNativeService&#45;&gt;AppModule</title>
<path fill="none" stroke="#000000" d="M122,-122.1061C122,-141.3391 122,-169 122,-169 122,-169 331.0658,-169 331.0658,-169"/>
<polygon fill="#000000" stroke="#000000" points="331.0659,-172.5001 341.0658,-169 331.0658,-165.5001 331.0659,-172.5001"/>
</g>
</g>
</svg>
